<?xml version="1.0" encoding="utf-8" standalone="no"?>
<!DOCTYPE svg PUBLIC "-//W3C//DTD SVG 1.1//EN"
  "http://www.w3.org/Graphics/SVG/1.1/DTD/svg11.dtd">
<svg xmlns:xlink="http://www.w3.org/1999/xlink" width="728.39952pt" height="482.09976pt" viewBox="0 0 728.39952 482.09976" xmlns="http://www.w3.org/2000/svg" version="1.1">
 <metadata>
  <rdf:RDF xmlns:dc="http://purl.org/dc/elements/1.1/" xmlns:cc="http://creativecommons.org/ns#" xmlns:rdf="http://www.w3.org/1999/02/22-rdf-syntax-ns#">
   <cc:Work>
    <dc:type rdf:resource="http://purl.org/dc/dcmitype/StillImage"/>
    <dc:format>image/svg+xml</dc:format>
    <dc:creator>
     <cc:Agent>
      <dc:title>Matplotlib v3.11.1, https://matplotlib.org/</dc:title>
     </cc:Agent>
    </dc:creator>
   </cc:Work>
  </rdf:RDF>
 </metadata>
 <defs>
  <style type="text/css">*{stroke-linejoin: round; stroke-linecap: butt}</style>
 </defs>
 <g id="figure_1">
  <g id="patch_1">
   <path d="M 0 482.09976
L 728.39952 482.09976
L 728.39952 0
L 0 0
z
" style="fill: #ffffff"/>
  </g>
  <g id="axes_1">
   <g id="patch_2">
    <path d="M 60.648828 395.092556
L 721.19952 395.092556
L 721.19952 45.982793
L 60.648828 45.982793
z
" style="fill: #ffffff"/>
   </g>
   <g id="line2d_1">
    <path d="M 60.648828 225.621797
L 721.19952 225.621797
" clip-path="url(#pf129adb751)" style="fill: none; stroke-dasharray: 1,1.65; stroke-dashoffset: 0; stroke: #666666"/>
   </g>
   <g id="matplotlib.axis_1">
    <g id="xtick_1">
     <g id="line2d_2">
      <path d="M 90.67386 395.092556
L 90.67386 45.982793
" clip-path="url(#pf129adb751)" style="fill: none; stroke: #b0b0b0; stroke-opacity: 0.2; stroke-width: 0.8; stroke-linecap: square"/>
     </g>
     <g id="line2d_3">
      <defs>
       <path id="m4d94817a86" d="M 0 0
L 0 3.5
" style="stroke: #000000; stroke-width: 0.8"/>
      </defs>
      <g>
       <use xlink:href="#m4d94817a86" x="90.67386" y="395.092556" style="stroke: #000000; stroke-width: 0.8"/>
      </g>
     </g>
     <g id="text_1">
      <!-- 10 -->
      <g transform="translate(83.67511 410.449977) scale(0.11 -0.11)">
       <defs>
        <path id="DejaVuSans-14" d="M 794 531
L 1825 531
L 1825 4091
L 703 3866
L 703 4441
L 1819 4666
L 2450 4666
L 2450 531
L 3481 531
L 3481 0
L 794 0
L 794 531
z
" transform="scale(0.015625)"/>
        <path id="DejaVuSans-13" d="M 2034 4250
Q 1547 4250 1301 3770
Q 1056 3291 1056 2328
Q 1056 1369 1301 889
Q 1547 409 2034 409
Q 2525 409 2770 889
Q 3016 1369 3016 2328
Q 3016 3291 2770 3770
Q 2525 4250 2034 4250
z
M 2034 4750
Q 2819 4750 3233 4129
Q 3647 3509 3647 2328
Q 3647 1150 3233 529
Q 2819 -91 2034 -91
Q 1250 -91 836 529
Q 422 1150 422 2328
Q 422 3509 836 4129
Q 1250 4750 2034 4750
z
" transform="scale(0.015625)"/>
       </defs>
       <use xlink:href="#DejaVuSans-14"/>
       <use xlink:href="#DejaVuSans-13" transform="translate(63.625 0)"/>
      </g>
     </g>
    </g>
    <g id="xtick_2">
     <g id="line2d_4">
      <path d="M 178.982776 395.092556
L 178.982776 45.982793
" clip-path="url(#pf129adb751)" style="fill: none; stroke: #b0b0b0; stroke-opacity: 0.2; stroke-width: 0.8; stroke-linecap: square"/>
     </g>
     <g id="line2d_5">
      <g>
       <use xlink:href="#m4d94817a86" x="178.982776" y="395.092556" style="stroke: #000000; stroke-width: 0.8"/>
      </g>
     </g>
     <g id="text_2">
      <!-- 15 -->
      <g transform="translate(171.984026 410.449977) scale(0.11 -0.11)">
       <defs>
        <path id="DejaVuSans-18" d="M 691 4666
L 3169 4666
L 3169 4134
L 1269 4134
L 1269 2991
Q 1406 3038 1543 3061
Q 1681 3084 1819 3084
Q 2600 3084 3056 2656
Q 3513 2228 3513 1497
Q 3513 744 3044 326
Q 2575 -91 1722 -91
Q 1428 -91 1123 -41
Q 819 9 494 109
L 494 744
Q 775 591 1075 516
Q 1375 441 1709 441
Q 2250 441 2565 725
Q 2881 1009 2881 1497
Q 2881 1984 2565 2268
Q 2250 2553 1709 2553
Q 1456 2553 1204 2497
Q 953 2441 691 2322
L 691 4666
z
" transform="scale(0.015625)"/>
       </defs>
       <use xlink:href="#DejaVuSans-14"/>
       <use xlink:href="#DejaVuSans-18" transform="translate(63.625 0)"/>
      </g>
     </g>
    </g>
    <g id="xtick_3">
     <g id="line2d_6">
      <path d="M 267.291692 395.092556
L 267.291692 45.982793
" clip-path="url(#pf129adb751)" style="fill: none; stroke: #b0b0b0; stroke-opacity: 0.2; stroke-width: 0.8; stroke-linecap: square"/>
     </g>
     <g id="line2d_7">
      <g>
       <use xlink:href="#m4d94817a86" x="267.291692" y="395.092556" style="stroke: #000000; stroke-width: 0.8"/>
      </g>
     </g>
     <g id="text_3">
      <!-- 20 -->
      <g transform="translate(260.292942 410.449977) scale(0.11 -0.11)">
       <defs>
        <path id="DejaVuSans-15" d="M 1228 531
L 3431 531
L 3431 0
L 469 0
L 469 531
Q 828 903 1448 1529
Q 2069 2156 2228 2338
Q 2531 2678 2651 2914
Q 2772 3150 2772 3378
Q 2772 3750 2511 3984
Q 2250 4219 1831 4219
Q 1534 4219 1204 4116
Q 875 4013 500 3803
L 500 4441
Q 881 4594 1212 4672
Q 1544 4750 1819 4750
Q 2544 4750 2975 4387
Q 3406 4025 3406 3419
Q 3406 3131 3298 2873
Q 3191 2616 2906 2266
Q 2828 2175 2409 1742
Q 1991 1309 1228 531
z
" transform="scale(0.015625)"/>
       </defs>
       <use xlink:href="#DejaVuSans-15"/>
       <use xlink:href="#DejaVuSans-13" transform="translate(63.625 0)"/>
      </g>
     </g>
    </g>
    <g id="xtick_4">
     <g id="line2d_8">
      <path d="M 355.600608 395.092556
L 355.600608 45.982793
" clip-path="url(#pf129adb751)" style="fill: none; stroke: #b0b0b0; stroke-opacity: 0.2; stroke-width: 0.8; stroke-linecap: square"/>
     </g>
     <g id="line2d_9">
      <g>
       <use xlink:href="#m4d94817a86" x="355.600608" y="395.092556" style="stroke: #000000; stroke-width: 0.8"/>
      </g>
     </g>
     <g id="text_4">
      <!-- 25 -->
      <g transform="translate(348.601858 410.449977) scale(0.11 -0.11)">
       <use xlink:href="#DejaVuSans-15"/>
       <use xlink:href="#DejaVuSans-18" transform="translate(63.625 0)"/>
      </g>
     </g>
    </g>
    <g id="xtick_5">
     <g id="line2d_10">
      <path d="M 443.909524 395.092556
L 443.909524 45.982793
" clip-path="url(#pf129adb751)" style="fill: none; stroke: #b0b0b0; stroke-opacity: 0.2; stroke-width: 0.8; stroke-linecap: square"/>
     </g>
     <g id="line2d_11">
      <g>
       <use xlink:href="#m4d94817a86" x="443.909524" y="395.092556" style="stroke: #000000; stroke-width: 0.8"/>
      </g>
     </g>
     <g id="text_5">
      <!-- 30 -->
      <g transform="translate(436.910774 410.449977) scale(0.11 -0.11)">
       <defs>
        <path id="DejaVuSans-16" d="M 2597 2516
Q 3050 2419 3304 2112
Q 3559 1806 3559 1356
Q 3559 666 3084 287
Q 2609 -91 1734 -91
Q 1441 -91 1130 -33
Q 819 25 488 141
L 488 750
Q 750 597 1062 519
Q 1375 441 1716 441
Q 2309 441 2620 675
Q 2931 909 2931 1356
Q 2931 1769 2642 2001
Q 2353 2234 1838 2234
L 1294 2234
L 1294 2753
L 1863 2753
Q 2328 2753 2575 2939
Q 2822 3125 2822 3475
Q 2822 3834 2567 4026
Q 2313 4219 1838 4219
Q 1578 4219 1281 4162
Q 984 4106 628 3988
L 628 4550
Q 988 4650 1302 4700
Q 1616 4750 1894 4750
Q 2613 4750 3031 4423
Q 3450 4097 3450 3541
Q 3450 3153 3228 2886
Q 3006 2619 2597 2516
z
" transform="scale(0.015625)"/>
       </defs>
       <use xlink:href="#DejaVuSans-16"/>
       <use xlink:href="#DejaVuSans-13" transform="translate(63.625 0)"/>
      </g>
     </g>
    </g>
    <g id="xtick_6">
     <g id="line2d_12">
      <path d="M 532.21844 395.092556
L 532.21844 45.982793
" clip-path="url(#pf129adb751)" style="fill: none; stroke: #b0b0b0; stroke-opacity: 0.2; stroke-width: 0.8; stroke-linecap: square"/>
     </g>
     <g id="line2d_13">
      <g>
       <use xlink:href="#m4d94817a86" x="532.21844" y="395.092556" style="stroke: #000000; stroke-width: 0.8"/>
      </g>
     </g>
     <g id="text_6">
      <!-- 35 -->
      <g transform="translate(525.21969 410.449977) scale(0.11 -0.11)">
       <use xlink:href="#DejaVuSans-16"/>
       <use xlink:href="#DejaVuSans-18" transform="translate(63.625 0)"/>
      </g>
     </g>
    </g>
    <g id="xtick_7">
     <g id="line2d_14">
      <path d="M 620.527356 395.092556
L 620.527356 45.982793
" clip-path="url(#pf129adb751)" style="fill: none; stroke: #b0b0b0; stroke-opacity: 0.2; stroke-width: 0.8; stroke-linecap: square"/>
     </g>
     <g id="line2d_15">
      <g>
       <use xlink:href="#m4d94817a86" x="620.527356" y="395.092556" style="stroke: #000000; stroke-width: 0.8"/>
      </g>
     </g>
     <g id="text_7">
      <!-- 40 -->
      <g transform="translate(613.528606 410.449977) scale(0.11 -0.11)">
       <defs>
        <path id="DejaVuSans-17" d="M 2419 4116
L 825 1625
L 2419 1625
L 2419 4116
z
M 2253 4666
L 3047 4666
L 3047 1625
L 3713 1625
L 3713 1100
L 3047 1100
L 3047 0
L 2419 0
L 2419 1100
L 313 1100
L 313 1709
L 2253 4666
z
" transform="scale(0.015625)"/>
       </defs>
       <use xlink:href="#DejaVuSans-17"/>
       <use xlink:href="#DejaVuSans-13" transform="translate(63.625 0)"/>
      </g>
     </g>
    </g>
    <g id="xtick_8">
     <g id="line2d_16">
      <path d="M 708.836272 395.092556
L 708.836272 45.982793
" clip-path="url(#pf129adb751)" style="fill: none; stroke: #b0b0b0; stroke-opacity: 0.2; stroke-width: 0.8; stroke-linecap: square"/>
     </g>
     <g id="line2d_17">
      <g>
       <use xlink:href="#m4d94817a86" x="708.836272" y="395.092556" style="stroke: #000000; stroke-width: 0.8"/>
      </g>
     </g>
     <g id="text_8">
      <!-- 45 -->
      <g transform="translate(701.837522 410.449977) scale(0.11 -0.11)">
       <use xlink:href="#DejaVuSans-17"/>
       <use xlink:href="#DejaVuSans-18" transform="translate(63.625 0)"/>
      </g>
     </g>
    </g>
    <g id="text_9">
     <!-- Training participants (mean count for bold lines) -->
     <g transform="translate(258.370737 425.450837) scale(0.11 -0.11)">
      <defs>
       <path id="DejaVuSans-37" d="M -19 4666
L 3928 4666
L 3928 4134
L 2272 4134
L 2272 0
L 1638 0
L 1638 4134
L -19 4134
L -19 4666
z
" transform="scale(0.015625)"/>
       <path id="DejaVuSans-55" d="M 2631 2963
Q 2534 3019 2420 3045
Q 2306 3072 2169 3072
Q 1681 3072 1420 2755
Q 1159 2438 1159 1844
L 1159 0
L 581 0
L 581 3500
L 1159 3500
L 1159 2956
Q 1341 3275 1631 3429
Q 1922 3584 2338 3584
Q 2397 3584 2469 3576
Q 2541 3569 2628 3553
L 2631 2963
z
" transform="scale(0.015625)"/>
       <path id="DejaVuSans-44" d="M 2194 1759
Q 1497 1759 1228 1600
Q 959 1441 959 1056
Q 959 750 1161 570
Q 1363 391 1709 391
Q 2188 391 2477 730
Q 2766 1069 2766 1631
L 2766 1759
L 2194 1759
z
M 3341 1997
L 3341 0
L 2766 0
L 2766 531
Q 2569 213 2275 61
Q 1981 -91 1556 -91
Q 1019 -91 701 211
Q 384 513 384 1019
Q 384 1609 779 1909
Q 1175 2209 1959 2209
L 2766 2209
L 2766 2266
Q 2766 2663 2505 2880
Q 2244 3097 1772 3097
Q 1472 3097 1187 3025
Q 903 2953 641 2809
L 641 3341
Q 956 3463 1253 3523
Q 1550 3584 1831 3584
Q 2591 3584 2966 3190
Q 3341 2797 3341 1997
z
" transform="scale(0.015625)"/>
       <path id="DejaVuSans-4c" d="M 603 3500
L 1178 3500
L 1178 0
L 603 0
L 603 3500
z
M 603 4863
L 1178 4863
L 1178 4134
L 603 4134
L 603 4863
z
" transform="scale(0.015625)"/>
       <path id="DejaVuSans-51" d="M 3513 2113
L 3513 0
L 2938 0
L 2938 2094
Q 2938 2591 2744 2837
Q 2550 3084 2163 3084
Q 1697 3084 1428 2787
Q 1159 2491 1159 1978
L 1159 0
L 581 0
L 581 3500
L 1159 3500
L 1159 2956
Q 1366 3272 1645 3428
Q 1925 3584 2291 3584
Q 2894 3584 3203 3211
Q 3513 2838 3513 2113
z
" transform="scale(0.015625)"/>
       <path id="DejaVuSans-4a" d="M 2906 1791
Q 2906 2416 2648 2759
Q 2391 3103 1925 3103
Q 1463 3103 1205 2759
Q 947 2416 947 1791
Q 947 1169 1205 825
Q 1463 481 1925 481
Q 2391 481 2648 825
Q 2906 1169 2906 1791
z
M 3481 434
Q 3481 -459 3084 -895
Q 2688 -1331 1869 -1331
Q 1566 -1331 1297 -1286
Q 1028 -1241 775 -1147
L 775 -588
Q 1028 -725 1275 -790
Q 1522 -856 1778 -856
Q 2344 -856 2625 -561
Q 2906 -266 2906 331
L 2906 616
Q 2728 306 2450 153
Q 2172 0 1784 0
Q 1141 0 747 490
Q 353 981 353 1791
Q 353 2603 747 3093
Q 1141 3584 1784 3584
Q 2172 3584 2450 3431
Q 2728 3278 2906 2969
L 2906 3500
L 3481 3500
L 3481 434
z
" transform="scale(0.015625)"/>
       <path id="DejaVuSans-3" transform="scale(0.015625)"/>
       <path id="DejaVuSans-53" d="M 1159 525
L 1159 -1331
L 581 -1331
L 581 3500
L 1159 3500
L 1159 2969
Q 1341 3281 1617 3432
Q 1894 3584 2278 3584
Q 2916 3584 3314 3078
Q 3713 2572 3713 1747
Q 3713 922 3314 415
Q 2916 -91 2278 -91
Q 1894 -91 1617 61
Q 1341 213 1159 525
z
M 3116 1747
Q 3116 2381 2855 2742
Q 2594 3103 2138 3103
Q 1681 3103 1420 2742
Q 1159 2381 1159 1747
Q 1159 1113 1420 752
Q 1681 391 2138 391
Q 2594 391 2855 752
Q 3116 1113 3116 1747
z
" transform="scale(0.015625)"/>
       <path id="DejaVuSans-57" d="M 1172 4494
L 1172 3500
L 2356 3500
L 2356 3053
L 1172 3053
L 1172 1153
Q 1172 725 1289 603
Q 1406 481 1766 481
L 2356 481
L 2356 0
L 1766 0
Q 1100 0 847 248
Q 594 497 594 1153
L 594 3053
L 172 3053
L 172 3500
L 594 3500
L 594 4494
L 1172 4494
z
" transform="scale(0.015625)"/>
       <path id="DejaVuSans-46" d="M 3122 3366
L 3122 2828
Q 2878 2963 2633 3030
Q 2388 3097 2138 3097
Q 1578 3097 1268 2742
Q 959 2388 959 1747
Q 959 1106 1268 751
Q 1578 397 2138 397
Q 2388 397 2633 464
Q 2878 531 3122 666
L 3122 134
Q 2881 22 2623 -34
Q 2366 -91 2075 -91
Q 1284 -91 818 406
Q 353 903 353 1747
Q 353 2603 823 3093
Q 1294 3584 2113 3584
Q 2378 3584 2631 3529
Q 2884 3475 3122 3366
z
" transform="scale(0.015625)"/>
       <path id="DejaVuSans-56" d="M 2834 3397
L 2834 2853
Q 2591 2978 2328 3040
Q 2066 3103 1784 3103
Q 1356 3103 1142 2972
Q 928 2841 928 2578
Q 928 2378 1081 2264
Q 1234 2150 1697 2047
L 1894 2003
Q 2506 1872 2764 1633
Q 3022 1394 3022 966
Q 3022 478 2636 193
Q 2250 -91 1575 -91
Q 1294 -91 989 -36
Q 684 19 347 128
L 347 722
Q 666 556 975 473
Q 1284 391 1588 391
Q 1994 391 2212 530
Q 2431 669 2431 922
Q 2431 1156 2273 1281
Q 2116 1406 1581 1522
L 1381 1569
Q 847 1681 609 1914
Q 372 2147 372 2553
Q 372 3047 722 3315
Q 1072 3584 1716 3584
Q 2034 3584 2315 3537
Q 2597 3491 2834 3397
z
" transform="scale(0.015625)"/>
       <path id="DejaVuSans-b" d="M 1984 4856
Q 1566 4138 1362 3434
Q 1159 2731 1159 2009
Q 1159 1288 1364 580
Q 1569 -128 1984 -844
L 1484 -844
Q 1016 -109 783 600
Q 550 1309 550 2009
Q 550 2706 781 3412
Q 1013 4119 1484 4856
L 1984 4856
z
" transform="scale(0.015625)"/>
       <path id="DejaVuSans-50" d="M 3328 2828
Q 3544 3216 3844 3400
Q 4144 3584 4550 3584
Q 5097 3584 5394 3201
Q 5691 2819 5691 2113
L 5691 0
L 5113 0
L 5113 2094
Q 5113 2597 4934 2840
Q 4756 3084 4391 3084
Q 3944 3084 3684 2787
Q 3425 2491 3425 1978
L 3425 0
L 2847 0
L 2847 2094
Q 2847 2600 2669 2842
Q 2491 3084 2119 3084
Q 1678 3084 1418 2786
Q 1159 2488 1159 1978
L 1159 0
L 581 0
L 581 3500
L 1159 3500
L 1159 2956
Q 1356 3278 1631 3431
Q 1906 3584 2284 3584
Q 2666 3584 2933 3390
Q 3200 3197 3328 2828
z
" transform="scale(0.015625)"/>
       <path id="DejaVuSans-48" d="M 3597 1894
L 3597 1613
L 953 1613
Q 991 1019 1311 708
Q 1631 397 2203 397
Q 2534 397 2845 478
Q 3156 559 3463 722
L 3463 178
Q 3153 47 2828 -22
Q 2503 -91 2169 -91
Q 1331 -91 842 396
Q 353 884 353 1716
Q 353 2575 817 3079
Q 1281 3584 2069 3584
Q 2775 3584 3186 3129
Q 3597 2675 3597 1894
z
M 3022 2063
Q 3016 2534 2758 2815
Q 2500 3097 2075 3097
Q 1594 3097 1305 2825
Q 1016 2553 972 2059
L 3022 2063
z
" transform="scale(0.015625)"/>
       <path id="DejaVuSans-52" d="M 1959 3097
Q 1497 3097 1228 2736
Q 959 2375 959 1747
Q 959 1119 1226 758
Q 1494 397 1959 397
Q 2419 397 2687 759
Q 2956 1122 2956 1747
Q 2956 2369 2687 2733
Q 2419 3097 1959 3097
z
M 1959 3584
Q 2709 3584 3137 3096
Q 3566 2609 3566 1747
Q 3566 888 3137 398
Q 2709 -91 1959 -91
Q 1206 -91 779 398
Q 353 888 353 1747
Q 353 2609 779 3096
Q 1206 3584 1959 3584
z
" transform="scale(0.015625)"/>
       <path id="DejaVuSans-58" d="M 544 1381
L 544 3500
L 1119 3500
L 1119 1403
Q 1119 906 1312 657
Q 1506 409 1894 409
Q 2359 409 2629 706
Q 2900 1003 2900 1516
L 2900 3500
L 3475 3500
L 3475 0
L 2900 0
L 2900 538
Q 2691 219 2414 64
Q 2138 -91 1772 -91
Q 1169 -91 856 284
Q 544 659 544 1381
z
M 1991 3584
L 1991 3584
z
" transform="scale(0.015625)"/>
       <path id="DejaVuSans-49" d="M 2375 4863
L 2375 4384
L 1825 4384
Q 1516 4384 1395 4259
Q 1275 4134 1275 3809
L 1275 3500
L 2222 3500
L 2222 3053
L 1275 3053
L 1275 0
L 697 0
L 697 3053
L 147 3053
L 147 3500
L 697 3500
L 697 3744
Q 697 4328 969 4595
Q 1241 4863 1831 4863
L 2375 4863
z
" transform="scale(0.015625)"/>
       <path id="DejaVuSans-45" d="M 3116 1747
Q 3116 2381 2855 2742
Q 2594 3103 2138 3103
Q 1681 3103 1420 2742
Q 1159 2381 1159 1747
Q 1159 1113 1420 752
Q 1681 391 2138 391
Q 2594 391 2855 752
Q 3116 1113 3116 1747
z
M 1159 2969
Q 1341 3281 1617 3432
Q 1894 3584 2278 3584
Q 2916 3584 3314 3078
Q 3713 2572 3713 1747
Q 3713 922 3314 415
Q 2916 -91 2278 -91
Q 1894 -91 1617 61
Q 1341 213 1159 525
L 1159 0
L 581 0
L 581 4863
L 1159 4863
L 1159 2969
z
" transform="scale(0.015625)"/>
       <path id="DejaVuSans-4f" d="M 603 4863
L 1178 4863
L 1178 0
L 603 0
L 603 4863
z
" transform="scale(0.015625)"/>
       <path id="DejaVuSans-47" d="M 2906 2969
L 2906 4863
L 3481 4863
L 3481 0
L 2906 0
L 2906 525
Q 2725 213 2448 61
Q 2172 -91 1784 -91
Q 1150 -91 751 415
Q 353 922 353 1747
Q 353 2572 751 3078
Q 1150 3584 1784 3584
Q 2172 3584 2448 3432
Q 2725 3281 2906 2969
z
M 947 1747
Q 947 1113 1208 752
Q 1469 391 1925 391
Q 2381 391 2643 752
Q 2906 1113 2906 1747
Q 2906 2381 2643 2742
Q 2381 3103 1925 3103
Q 1469 3103 1208 2742
Q 947 2381 947 1747
z
" transform="scale(0.015625)"/>
       <path id="DejaVuSans-c" d="M 513 4856
L 1013 4856
Q 1481 4119 1714 3412
Q 1947 2706 1947 2009
Q 1947 1309 1714 600
Q 1481 -109 1013 -844
L 513 -844
Q 928 -128 1133 580
Q 1338 1288 1338 2009
Q 1338 2731 1133 3434
Q 928 4138 513 4856
z
" transform="scale(0.015625)"/>
      </defs>
      <use xlink:href="#DejaVuSans-37"/>
      <use xlink:href="#DejaVuSans-55" transform="translate(46.375 0)"/>
      <use xlink:href="#DejaVuSans-44" transform="translate(87.484375 0)"/>
      <use xlink:href="#DejaVuSans-4c" transform="translate(148.765625 0)"/>
      <use xlink:href="#DejaVuSans-51" transform="translate(176.546875 0)"/>
      <use xlink:href="#DejaVuSans-4c" transform="translate(239.921875 0)"/>
      <use xlink:href="#DejaVuSans-51" transform="translate(267.703125 0)"/>
      <use xlink:href="#DejaVuSans-4a" transform="translate(331.078125 0)"/>
      <use xlink:href="#DejaVuSans-3" transform="translate(394.5625 0)"/>
      <use xlink:href="#DejaVuSans-53" transform="translate(426.34375 0)"/>
      <use xlink:href="#DejaVuSans-44" transform="translate(489.828125 0)"/>
      <use xlink:href="#DejaVuSans-55" transform="translate(551.109375 0)"/>
      <use xlink:href="#DejaVuSans-57" transform="translate(592.21875 0)"/>
      <use xlink:href="#DejaVuSans-4c" transform="translate(631.421875 0)"/>
      <use xlink:href="#DejaVuSans-46" transform="translate(659.203125 0)"/>
      <use xlink:href="#DejaVuSans-4c" transform="translate(714.1875 0)"/>
      <use xlink:href="#DejaVuSans-53" transform="translate(741.96875 0)"/>
      <use xlink:href="#DejaVuSans-44" transform="translate(805.453125 0)"/>
      <use xlink:href="#DejaVuSans-51" transform="translate(866.734375 0)"/>
      <use xlink:href="#DejaVuSans-57" transform="translate(930.109375 0)"/>
      <use xlink:href="#DejaVuSans-56" transform="translate(969.3125 0)"/>
      <use xlink:href="#DejaVuSans-3" transform="translate(1021.40625 0)"/>
      <use xlink:href="#DejaVuSans-b" transform="translate(1053.1875 0)"/>
      <use xlink:href="#DejaVuSans-50" transform="translate(1092.203125 0)"/>
      <use xlink:href="#DejaVuSans-48" transform="translate(1189.609375 0)"/>
      <use xlink:href="#DejaVuSans-44" transform="translate(1251.140625 0)"/>
      <use xlink:href="#DejaVuSans-51" transform="translate(1312.421875 0)"/>
      <use xlink:href="#DejaVuSans-3" transform="translate(1375.796875 0)"/>
      <use xlink:href="#DejaVuSans-46" transform="translate(1407.578125 0)"/>
      <use xlink:href="#DejaVuSans-52" transform="translate(1462.5625 0)"/>
      <use xlink:href="#DejaVuSans-58" transform="translate(1523.75 0)"/>
      <use xlink:href="#DejaVuSans-51" transform="translate(1587.125 0)"/>
      <use xlink:href="#DejaVuSans-57" transform="translate(1650.5 0)"/>
      <use xlink:href="#DejaVuSans-3" transform="translate(1689.703125 0)"/>
      <use xlink:href="#DejaVuSans-49" transform="translate(1721.484375 0)"/>
      <use xlink:href="#DejaVuSans-52" transform="translate(1756.6875 0)"/>
      <use xlink:href="#DejaVuSans-55" transform="translate(1817.875 0)"/>
      <use xlink:href="#DejaVuSans-3" transform="translate(1858.984375 0)"/>
      <use xlink:href="#DejaVuSans-45" transform="translate(1890.765625 0)"/>
      <use xlink:href="#DejaVuSans-52" transform="translate(1954.25 0)"/>
      <use xlink:href="#DejaVuSans-4f" transform="translate(2015.4375 0)"/>
      <use xlink:href="#DejaVuSans-47" transform="translate(2043.21875 0)"/>
      <use xlink:href="#DejaVuSans-3" transform="translate(2106.703125 0)"/>
      <use xlink:href="#DejaVuSans-4f" transform="translate(2138.484375 0)"/>
      <use xlink:href="#DejaVuSans-4c" transform="translate(2166.265625 0)"/>
      <use xlink:href="#DejaVuSans-51" transform="translate(2194.046875 0)"/>
      <use xlink:href="#DejaVuSans-48" transform="translate(2257.421875 0)"/>
      <use xlink:href="#DejaVuSans-56" transform="translate(2318.953125 0)"/>
      <use xlink:href="#DejaVuSans-c" transform="translate(2371.046875 0)"/>
     </g>
    </g>
   </g>
   <g id="matplotlib.axis_2">
    <g id="ytick_1">
     <g id="line2d_18">
      <path d="M 60.648828 395.092556
L 721.19952 395.092556
" clip-path="url(#pf129adb751)" style="fill: none; stroke: #b0b0b0; stroke-opacity: 0.2; stroke-width: 0.8; stroke-linecap: square"/>
     </g>
     <g id="line2d_19">
      <defs>
       <path id="m79241bc5bc" d="M 0 0
L -3.5 0
" style="stroke: #000000; stroke-width: 0.8"/>
      </defs>
      <g>
       <use xlink:href="#m79241bc5bc" x="60.648828" y="395.092556" style="stroke: #000000; stroke-width: 0.8"/>
      </g>
     </g>
     <g id="text_10">
      <!-- 0% -->
      <g transform="translate(36.198359 399.271267) scale(0.11 -0.11)">
       <defs>
        <path id="DejaVuSans-8" d="M 4653 2053
Q 4381 2053 4226 1822
Q 4072 1591 4072 1178
Q 4072 772 4226 539
Q 4381 306 4653 306
Q 4919 306 5073 539
Q 5228 772 5228 1178
Q 5228 1588 5073 1820
Q 4919 2053 4653 2053
z
M 4653 2450
Q 5147 2450 5437 2106
Q 5728 1763 5728 1178
Q 5728 594 5436 251
Q 5144 -91 4653 -91
Q 4153 -91 3862 251
Q 3572 594 3572 1178
Q 3572 1766 3864 2108
Q 4156 2450 4653 2450
z
M 1428 4353
Q 1159 4353 1004 4120
Q 850 3888 850 3481
Q 850 3069 1003 2837
Q 1156 2606 1428 2606
Q 1700 2606 1854 2837
Q 2009 3069 2009 3481
Q 2009 3884 1853 4118
Q 1697 4353 1428 4353
z
M 4250 4750
L 4750 4750
L 1831 -91
L 1331 -91
L 4250 4750
z
M 1428 4750
Q 1922 4750 2215 4408
Q 2509 4066 2509 3481
Q 2509 2891 2217 2550
Q 1925 2209 1428 2209
Q 931 2209 642 2551
Q 353 2894 353 3481
Q 353 4063 643 4406
Q 934 4750 1428 4750
z
" transform="scale(0.015625)"/>
       </defs>
       <use xlink:href="#DejaVuSans-13"/>
       <use xlink:href="#DejaVuSans-8" transform="translate(63.625 0)"/>
      </g>
     </g>
    </g>
    <g id="ytick_2">
     <g id="line2d_20">
      <path d="M 60.648828 327.304252
L 721.19952 327.304252
" clip-path="url(#pf129adb751)" style="fill: none; stroke: #b0b0b0; stroke-opacity: 0.2; stroke-width: 0.8; stroke-linecap: square"/>
     </g>
     <g id="line2d_21">
      <g>
       <use xlink:href="#m79241bc5bc" x="60.648828" y="327.304252" style="stroke: #000000; stroke-width: 0.8"/>
      </g>
     </g>
     <g id="text_11">
      <!-- 20% -->
      <g transform="translate(29.199609 331.482963) scale(0.11 -0.11)">
       <use xlink:href="#DejaVuSans-15"/>
       <use xlink:href="#DejaVuSans-13" transform="translate(63.625 0)"/>
       <use xlink:href="#DejaVuSans-8" transform="translate(127.25 0)"/>
      </g>
     </g>
    </g>
    <g id="ytick_3">
     <g id="line2d_22">
      <path d="M 60.648828 259.515949
L 721.19952 259.515949
" clip-path="url(#pf129adb751)" style="fill: none; stroke: #b0b0b0; stroke-opacity: 0.2; stroke-width: 0.8; stroke-linecap: square"/>
     </g>
     <g id="line2d_23">
      <g>
       <use xlink:href="#m79241bc5bc" x="60.648828" y="259.515949" style="stroke: #000000; stroke-width: 0.8"/>
      </g>
     </g>
     <g id="text_12">
      <!-- 40% -->
      <g transform="translate(29.199609 263.69466) scale(0.11 -0.11)">
       <use xlink:href="#DejaVuSans-17"/>
       <use xlink:href="#DejaVuSans-13" transform="translate(63.625 0)"/>
       <use xlink:href="#DejaVuSans-8" transform="translate(127.25 0)"/>
      </g>
     </g>
    </g>
    <g id="ytick_4">
     <g id="line2d_24">
      <path d="M 60.648828 191.727645
L 721.19952 191.727645
" clip-path="url(#pf129adb751)" style="fill: none; stroke: #b0b0b0; stroke-opacity: 0.2; stroke-width: 0.8; stroke-linecap: square"/>
     </g>
     <g id="line2d_25">
      <g>
       <use xlink:href="#m79241bc5bc" x="60.648828" y="191.727645" style="stroke: #000000; stroke-width: 0.8"/>
      </g>
     </g>
     <g id="text_13">
      <!-- 60% -->
      <g transform="translate(29.199609 195.906356) scale(0.11 -0.11)">
       <defs>
        <path id="DejaVuSans-19" d="M 2113 2584
Q 1688 2584 1439 2293
Q 1191 2003 1191 1497
Q 1191 994 1439 701
Q 1688 409 2113 409
Q 2538 409 2786 701
Q 3034 994 3034 1497
Q 3034 2003 2786 2293
Q 2538 2584 2113 2584
z
M 3366 4563
L 3366 3988
Q 3128 4100 2886 4159
Q 2644 4219 2406 4219
Q 1781 4219 1451 3797
Q 1122 3375 1075 2522
Q 1259 2794 1537 2939
Q 1816 3084 2150 3084
Q 2853 3084 3261 2657
Q 3669 2231 3669 1497
Q 3669 778 3244 343
Q 2819 -91 2113 -91
Q 1303 -91 875 529
Q 447 1150 447 2328
Q 447 3434 972 4092
Q 1497 4750 2381 4750
Q 2619 4750 2861 4703
Q 3103 4656 3366 4563
z
" transform="scale(0.015625)"/>
       </defs>
       <use xlink:href="#DejaVuSans-19"/>
       <use xlink:href="#DejaVuSans-13" transform="translate(63.625 0)"/>
       <use xlink:href="#DejaVuSans-8" transform="translate(127.25 0)"/>
      </g>
     </g>
    </g>
    <g id="ytick_5">
     <g id="line2d_26">
      <path d="M 60.648828 123.939342
L 721.19952 123.939342
" clip-path="url(#pf129adb751)" style="fill: none; stroke: #b0b0b0; stroke-opacity: 0.2; stroke-width: 0.8; stroke-linecap: square"/>
     </g>
     <g id="line2d_27">
      <g>
       <use xlink:href="#m79241bc5bc" x="60.648828" y="123.939342" style="stroke: #000000; stroke-width: 0.8"/>
      </g>
     </g>
     <g id="text_14">
      <!-- 80% -->
      <g transform="translate(29.199609 128.118053) scale(0.11 -0.11)">
       <defs>
        <path id="DejaVuSans-1b" d="M 2034 2216
Q 1584 2216 1326 1975
Q 1069 1734 1069 1313
Q 1069 891 1326 650
Q 1584 409 2034 409
Q 2484 409 2743 651
Q 3003 894 3003 1313
Q 3003 1734 2745 1975
Q 2488 2216 2034 2216
z
M 1403 2484
Q 997 2584 770 2862
Q 544 3141 544 3541
Q 544 4100 942 4425
Q 1341 4750 2034 4750
Q 2731 4750 3128 4425
Q 3525 4100 3525 3541
Q 3525 3141 3298 2862
Q 3072 2584 2669 2484
Q 3125 2378 3379 2068
Q 3634 1759 3634 1313
Q 3634 634 3220 271
Q 2806 -91 2034 -91
Q 1263 -91 848 271
Q 434 634 434 1313
Q 434 1759 690 2068
Q 947 2378 1403 2484
z
M 1172 3481
Q 1172 3119 1398 2916
Q 1625 2713 2034 2713
Q 2441 2713 2670 2916
Q 2900 3119 2900 3481
Q 2900 3844 2670 4047
Q 2441 4250 2034 4250
Q 1625 4250 1398 4047
Q 1172 3844 1172 3481
z
" transform="scale(0.015625)"/>
       </defs>
       <use xlink:href="#DejaVuSans-1b"/>
       <use xlink:href="#DejaVuSans-13" transform="translate(63.625 0)"/>
       <use xlink:href="#DejaVuSans-8" transform="translate(127.25 0)"/>
      </g>
     </g>
    </g>
    <g id="ytick_6">
     <g id="line2d_28">
      <path d="M 60.648828 56.151038
L 721.19952 56.151038
" clip-path="url(#pf129adb751)" style="fill: none; stroke: #b0b0b0; stroke-opacity: 0.2; stroke-width: 0.8; stroke-linecap: square"/>
     </g>
     <g id="line2d_29">
      <g>
       <use xlink:href="#m79241bc5bc" x="60.648828" y="56.151038" style="stroke: #000000; stroke-width: 0.8"/>
      </g>
     </g>
     <g id="text_15">
      <!-- 100% -->
      <g transform="translate(22.200859 60.329749) scale(0.11 -0.11)">
       <use xlink:href="#DejaVuSans-14"/>
       <use xlink:href="#DejaVuSans-13" transform="translate(63.625 0)"/>
       <use xlink:href="#DejaVuSans-13" transform="translate(127.25 0)"/>
       <use xlink:href="#DejaVuSans-8" transform="translate(190.875 0)"/>
      </g>
     </g>
    </g>
    <g id="text_16">
     <!-- Participant balanced accuracy -->
     <g transform="translate(15.558281 303.436424) rotate(-90) scale(0.11 -0.11)">
      <defs>
       <path id="DejaVuSans-33" d="M 1259 4147
L 1259 2394
L 2053 2394
Q 2494 2394 2734 2622
Q 2975 2850 2975 3272
Q 2975 3691 2734 3919
Q 2494 4147 2053 4147
L 1259 4147
z
M 628 4666
L 2053 4666
Q 2838 4666 3239 4311
Q 3641 3956 3641 3272
Q 3641 2581 3239 2228
Q 2838 1875 2053 1875
L 1259 1875
L 1259 0
L 628 0
L 628 4666
z
" transform="scale(0.015625)"/>
       <path id="DejaVuSans-5c" d="M 2059 -325
Q 1816 -950 1584 -1140
Q 1353 -1331 966 -1331
L 506 -1331
L 506 -850
L 844 -850
Q 1081 -850 1212 -737
Q 1344 -625 1503 -206
L 1606 56
L 191 3500
L 800 3500
L 1894 763
L 2988 3500
L 3597 3500
L 2059 -325
z
" transform="scale(0.015625)"/>
      </defs>
      <use xlink:href="#DejaVuSans-33"/>
      <use xlink:href="#DejaVuSans-44" transform="translate(55.8125 0)"/>
      <use xlink:href="#DejaVuSans-55" transform="translate(117.09375 0)"/>
      <use xlink:href="#DejaVuSans-57" transform="translate(158.203125 0)"/>
      <use xlink:href="#DejaVuSans-4c" transform="translate(197.40625 0)"/>
      <use xlink:href="#DejaVuSans-46" transform="translate(225.1875 0)"/>
      <use xlink:href="#DejaVuSans-4c" transform="translate(280.171875 0)"/>
      <use xlink:href="#DejaVuSans-53" transform="translate(307.953125 0)"/>
      <use xlink:href="#DejaVuSans-44" transform="translate(371.4375 0)"/>
      <use xlink:href="#DejaVuSans-51" transform="translate(432.71875 0)"/>
      <use xlink:href="#DejaVuSans-57" transform="translate(496.09375 0)"/>
      <use xlink:href="#DejaVuSans-3" transform="translate(535.296875 0)"/>
      <use xlink:href="#DejaVuSans-45" transform="translate(567.078125 0)"/>
      <use xlink:href="#DejaVuSans-44" transform="translate(630.5625 0)"/>
      <use xlink:href="#DejaVuSans-4f" transform="translate(691.84375 0)"/>
      <use xlink:href="#DejaVuSans-44" transform="translate(719.625 0)"/>
      <use xlink:href="#DejaVuSans-51" transform="translate(780.90625 0)"/>
      <use xlink:href="#DejaVuSans-46" transform="translate(844.28125 0)"/>
      <use xlink:href="#DejaVuSans-48" transform="translate(899.265625 0)"/>
      <use xlink:href="#DejaVuSans-47" transform="translate(960.796875 0)"/>
      <use xlink:href="#DejaVuSans-3" transform="translate(1024.28125 0)"/>
      <use xlink:href="#DejaVuSans-44" transform="translate(1056.0625 0)"/>
      <use xlink:href="#DejaVuSans-46" transform="translate(1117.34375 0)"/>
      <use xlink:href="#DejaVuSans-46" transform="translate(1172.328125 0)"/>
      <use xlink:href="#DejaVuSans-58" transform="translate(1227.3125 0)"/>
      <use xlink:href="#DejaVuSans-55" transform="translate(1290.6875 0)"/>
      <use xlink:href="#DejaVuSans-44" transform="translate(1331.796875 0)"/>
      <use xlink:href="#DejaVuSans-46" transform="translate(1393.078125 0)"/>
      <use xlink:href="#DejaVuSans-5c" transform="translate(1448.0625 0)"/>
     </g>
    </g>
   </g>
   <g id="line2d_30">
    <path d="M 161.320992 112.641291
L 337.938824 112.641291
L 691.174489 84.396165
" clip-path="url(#pf129adb751)" style="fill: none; stroke: #0072b2; stroke-opacity: 0.18; stroke-width: 0.8; stroke-linecap: square"/>
   </g>
   <g id="line2d_31">
    <path d="M 108.335643 112.641291
L 337.938824 112.641291
L 691.174489 98.518728
" clip-path="url(#pf129adb751)" style="fill: none; stroke: #0072b2; stroke-opacity: 0.18; stroke-width: 0.8; stroke-linecap: square"/>
   </g>
   <g id="line2d_32">
    <path d="M 108.335643 133.183201
L 284.953475 102.370336
L 691.174489 148.589634
" clip-path="url(#pf129adb751)" style="fill: none; stroke: #0072b2; stroke-opacity: 0.18; stroke-width: 0.8; stroke-linecap: square"/>
   </g>
   <g id="line2d_33">
    <path d="M 125.997426 126.763855
L 320.277041 126.763855
L 691.174489 126.763855
" clip-path="url(#pf129adb751)" style="fill: none; stroke: #0072b2; stroke-opacity: 0.18; stroke-width: 0.8; stroke-linecap: square"/>
   </g>
   <g id="line2d_34">
    <path d="M 90.67386 133.183201
L 284.953475 117.776769
L 691.174489 117.776769
" clip-path="url(#pf129adb751)" style="fill: none; stroke: #0072b2; stroke-opacity: 0.18; stroke-width: 0.8; stroke-linecap: square"/>
   </g>
   <g id="line2d_35">
    <path d="M 108.335643 129.588367
L 302.615258 129.588367
L 691.174489 98.518728
" clip-path="url(#pf129adb751)" style="fill: none; stroke: #0072b2; stroke-opacity: 0.18; stroke-width: 0.8; stroke-linecap: square"/>
   </g>
   <g id="line2d_36">
    <path d="M 117.166534 124.666868
L 311.44615 116.963652
L 691.174489 112.427313
" clip-path="url(#pf129adb751)" style="fill: none; stroke: #0072b2; stroke-width: 2.2; stroke-linecap: square"/>
    <defs>
     <path id="m1ea37959df" d="M 0 3
C 0.795609 3 1.55874 2.683901 2.12132 2.12132
C 2.683901 1.55874 3 0.795609 3 0
C 3 -0.795609 2.683901 -1.55874 2.12132 -2.12132
C 1.55874 -2.683901 0.795609 -3 0 -3
C -0.795609 -3 -1.55874 -2.683901 -2.12132 -2.12132
C -2.683901 -1.55874 -3 -0.795609 -3 0
C -3 0.795609 -2.683901 1.55874 -2.12132 2.12132
C -1.55874 2.683901 -0.795609 3 0 3
z
" style="stroke: #0072b2"/>
    </defs>
    <g clip-path="url(#pf129adb751)">
     <use xlink:href="#m1ea37959df" x="117.166534" y="124.666868" style="fill: #0072b2; stroke: #0072b2"/>
     <use xlink:href="#m1ea37959df" x="311.44615" y="116.963652" style="fill: #0072b2; stroke: #0072b2"/>
     <use xlink:href="#m1ea37959df" x="691.174489" y="112.427313" style="fill: #0072b2; stroke: #0072b2"/>
    </g>
   </g>
   <g id="line2d_37">
    <path d="M 161.320992 84.396165
L 337.938824 84.396165
L 691.174489 84.396165
" clip-path="url(#pf129adb751)" style="fill: none; stroke-dasharray: 2.96,1.28; stroke-dashoffset: 0; stroke: #d55e00; stroke-opacity: 0.18; stroke-width: 0.8"/>
   </g>
   <g id="line2d_38">
    <path d="M 161.320992 98.518728
L 337.938824 84.396165
L 691.174489 112.641291
" clip-path="url(#pf129adb751)" style="fill: none; stroke-dasharray: 2.96,1.28; stroke-dashoffset: 0; stroke: #d55e00; stroke-opacity: 0.18; stroke-width: 0.8"/>
   </g>
   <g id="line2d_39">
    <path d="M 108.335643 157.833494
L 337.938824 98.518728
L 691.174489 70.273602
" clip-path="url(#pf129adb751)" style="fill: none; stroke-dasharray: 2.96,1.28; stroke-dashoffset: 0; stroke: #d55e00; stroke-opacity: 0.18; stroke-width: 0.8"/>
   </g>
   <g id="line2d_40">
    <path d="M 108.335643 123.939342
L 337.938824 115.465804
L 691.174489 112.641291
" clip-path="url(#pf129adb751)" style="fill: none; stroke-dasharray: 2.96,1.28; stroke-dashoffset: 0; stroke: #d55e00; stroke-opacity: 0.18; stroke-width: 0.8"/>
   </g>
   <g id="line2d_41">
    <path d="M 108.335643 163.996067
L 284.953475 86.963904
L 691.174489 86.963904
" clip-path="url(#pf129adb751)" style="fill: none; stroke-dasharray: 2.96,1.28; stroke-dashoffset: 0; stroke: #d55e00; stroke-opacity: 0.18; stroke-width: 0.8"/>
   </g>
   <g id="line2d_42">
    <path d="M 108.335643 133.183201
L 284.953475 102.370336
L 691.174489 133.183201
" clip-path="url(#pf129adb751)" style="fill: none; stroke-dasharray: 2.96,1.28; stroke-dashoffset: 0; stroke: #d55e00; stroke-opacity: 0.18; stroke-width: 0.8"/>
   </g>
   <g id="line2d_43">
    <path d="M 125.997426 225.621797
L 320.277041 98.518728
L 691.174489 73.098114
" clip-path="url(#pf129adb751)" style="fill: none; stroke-dasharray: 2.96,1.28; stroke-dashoffset: 0; stroke: #d55e00; stroke-opacity: 0.18; stroke-width: 0.8"/>
   </g>
   <g id="line2d_44">
    <path d="M 125.997426 135.237392
L 320.277041 112.641291
L 691.174489 87.220678
" clip-path="url(#pf129adb751)" style="fill: none; stroke-dasharray: 2.96,1.28; stroke-dashoffset: 0; stroke: #d55e00; stroke-opacity: 0.18; stroke-width: 0.8"/>
   </g>
   <g id="line2d_45">
    <path d="M 90.67386 225.621797
L 284.953475 163.996067
L 691.174489 133.183201
" clip-path="url(#pf129adb751)" style="fill: none; stroke-dasharray: 2.96,1.28; stroke-dashoffset: 0; stroke: #d55e00; stroke-opacity: 0.18; stroke-width: 0.8"/>
   </g>
   <g id="line2d_46">
    <path d="M 90.67386 163.996067
L 284.953475 163.996067
L 691.174489 102.370336
" clip-path="url(#pf129adb751)" style="fill: none; stroke-dasharray: 2.96,1.28; stroke-dashoffset: 0; stroke: #d55e00; stroke-opacity: 0.18; stroke-width: 0.8"/>
   </g>
   <g id="line2d_47">
    <path d="M 108.335643 197.376671
L 302.615258 112.641291
L 691.174489 84.396165
" clip-path="url(#pf129adb751)" style="fill: none; stroke-dasharray: 2.96,1.28; stroke-dashoffset: 0; stroke: #d55e00; stroke-opacity: 0.18; stroke-width: 0.8"/>
   </g>
   <g id="line2d_48">
    <path d="M 108.335643 129.588367
L 302.615258 112.641291
L 691.174489 87.220678
" clip-path="url(#pf129adb751)" style="fill: none; stroke-dasharray: 2.96,1.28; stroke-dashoffset: 0; stroke: #d55e00; stroke-opacity: 0.18; stroke-width: 0.8"/>
   </g>
   <g id="line2d_49">
    <path d="M 117.166534 153.275757
L 311.44615 111.37882
L 691.174489 97.299052
" clip-path="url(#pf129adb751)" style="fill: none; stroke-dasharray: 8.14,3.52; stroke-dashoffset: 0; stroke: #d55e00; stroke-width: 2.2"/>
    <defs>
     <path id="m417e9de683" d="M -3 3
L 3 3
L 3 -3
L -3 -3
z
" style="stroke: #d55e00; stroke-linejoin: miter"/>
    </defs>
    <g clip-path="url(#pf129adb751)">
     <use xlink:href="#m417e9de683" x="117.166534" y="153.275757" style="fill: #d55e00; stroke: #d55e00; stroke-linejoin: miter"/>
     <use xlink:href="#m417e9de683" x="311.44615" y="111.37882" style="fill: #d55e00; stroke: #d55e00; stroke-linejoin: miter"/>
     <use xlink:href="#m417e9de683" x="691.174489" y="97.299052" style="fill: #d55e00; stroke: #d55e00; stroke-linejoin: miter"/>
    </g>
   </g>
   <g id="line2d_50">
    <path d="M 161.320992 87.220678
L 337.938824 84.396165
L 691.174489 98.518728
" clip-path="url(#pf129adb751)" style="fill: none; stroke-dasharray: 0.8,1.32; stroke-dashoffset: 0; stroke: #009e73; stroke-opacity: 0.18; stroke-width: 0.8"/>
   </g>
   <g id="line2d_51">
    <path d="M 161.320992 101.343241
L 337.938824 112.641291
L 691.174489 112.641291
" clip-path="url(#pf129adb751)" style="fill: none; stroke-dasharray: 0.8,1.32; stroke-dashoffset: 0; stroke: #009e73; stroke-opacity: 0.18; stroke-width: 0.8"/>
   </g>
   <g id="line2d_52">
    <path d="M 108.335643 140.886418
L 337.938824 70.273602
L 691.174489 123.939342
" clip-path="url(#pf129adb751)" style="fill: none; stroke-dasharray: 0.8,1.32; stroke-dashoffset: 0; stroke: #009e73; stroke-opacity: 0.18; stroke-width: 0.8"/>
   </g>
   <g id="line2d_53">
    <path d="M 108.335643 90.04519
L 337.938824 98.518728
L 691.174489 73.098114
" clip-path="url(#pf129adb751)" style="fill: none; stroke-dasharray: 0.8,1.32; stroke-dashoffset: 0; stroke: #009e73; stroke-opacity: 0.18; stroke-width: 0.8"/>
   </g>
   <g id="line2d_54">
    <path d="M 108.335643 148.589634
L 284.953475 148.589634
L 691.174489 102.370336
" clip-path="url(#pf129adb751)" style="fill: none; stroke-dasharray: 0.8,1.32; stroke-dashoffset: 0; stroke: #009e73; stroke-opacity: 0.18; stroke-width: 0.8"/>
   </g>
   <g id="line2d_55">
    <path d="M 108.335643 163.996067
L 284.953475 102.370336
L 691.174489 148.589634
" clip-path="url(#pf129adb751)" style="fill: none; stroke-dasharray: 0.8,1.32; stroke-dashoffset: 0; stroke: #009e73; stroke-opacity: 0.18; stroke-width: 0.8"/>
   </g>
   <g id="line2d_56">
    <path d="M 125.997426 70.273602
L 320.277041 56.151038
L 691.174489 70.273602
" clip-path="url(#pf129adb751)" style="fill: none; stroke-dasharray: 0.8,1.32; stroke-dashoffset: 0; stroke: #009e73; stroke-opacity: 0.18; stroke-width: 0.8"/>
   </g>
   <g id="line2d_57">
    <path d="M 125.997426 70.273602
L 320.277041 112.641291
L 691.174489 70.273602
" clip-path="url(#pf129adb751)" style="fill: none; stroke-dasharray: 0.8,1.32; stroke-dashoffset: 0; stroke: #009e73; stroke-opacity: 0.18; stroke-width: 0.8"/>
   </g>
   <g id="line2d_58">
    <path d="M 90.67386 225.621797
L 284.953475 194.808932
L 691.174489 117.776769
" clip-path="url(#pf129adb751)" style="fill: none; stroke-dasharray: 0.8,1.32; stroke-dashoffset: 0; stroke: #009e73; stroke-opacity: 0.18; stroke-width: 0.8"/>
   </g>
   <g id="line2d_59">
    <path d="M 90.67386 179.402499
L 284.953475 194.808932
L 691.174489 117.776769
" clip-path="url(#pf129adb751)" style="fill: none; stroke-dasharray: 0.8,1.32; stroke-dashoffset: 0; stroke: #009e73; stroke-opacity: 0.18; stroke-width: 0.8"/>
   </g>
   <g id="line2d_60">
    <path d="M 108.335643 112.641291
L 302.615258 84.396165
L 691.174489 90.04519
" clip-path="url(#pf129adb751)" style="fill: none; stroke-dasharray: 0.8,1.32; stroke-dashoffset: 0; stroke: #009e73; stroke-opacity: 0.18; stroke-width: 0.8"/>
   </g>
   <g id="line2d_61">
    <path d="M 108.335643 183.254107
L 302.615258 129.588367
L 691.174489 56.151038
" clip-path="url(#pf129adb751)" style="fill: none; stroke-dasharray: 0.8,1.32; stroke-dashoffset: 0; stroke: #009e73; stroke-opacity: 0.18; stroke-width: 0.8"/>
   </g>
   <g id="line2d_62">
    <path d="M 117.166534 131.12901
L 311.44615 115.765374
L 691.174489 98.454535
" clip-path="url(#pf129adb751)" style="fill: none; stroke-dasharray: 2.2,3.63; stroke-dashoffset: 0; stroke: #009e73; stroke-width: 2.2"/>
    <defs>
     <path id="mf50a8f55ab" d="M 0 -3
L -3 3
L 3 3
z
" style="stroke: #009e73; stroke-linejoin: miter"/>
    </defs>
    <g clip-path="url(#pf129adb751)">
     <use xlink:href="#mf50a8f55ab" x="117.166534" y="131.12901" style="fill: #009e73; stroke: #009e73; stroke-linejoin: miter"/>
     <use xlink:href="#mf50a8f55ab" x="311.44615" y="115.765374" style="fill: #009e73; stroke: #009e73; stroke-linejoin: miter"/>
     <use xlink:href="#mf50a8f55ab" x="691.174489" y="98.454535" style="fill: #009e73; stroke: #009e73; stroke-linejoin: miter"/>
    </g>
   </g>
   <g id="patch_3">
    <path d="M 60.648828 395.092556
L 60.648828 45.982793
" style="fill: none; stroke: #000000; stroke-width: 0.8; stroke-linejoin: miter; stroke-linecap: square"/>
   </g>
   <g id="patch_4">
    <path d="M 721.19952 395.092556
L 721.19952 45.982793
" style="fill: none; stroke: #000000; stroke-width: 0.8; stroke-linejoin: miter; stroke-linecap: square"/>
   </g>
   <g id="patch_5">
    <path d="M 60.648828 395.092556
L 721.19952 395.092556
" style="fill: none; stroke: #000000; stroke-width: 0.8; stroke-linejoin: miter; stroke-linecap: square"/>
   </g>
   <g id="patch_6">
    <path d="M 60.648828 45.982793
L 721.19952 45.982793
" style="fill: none; stroke: #000000; stroke-width: 0.8; stroke-linejoin: miter; stroke-linecap: square"/>
   </g>
   <g id="text_17">
    <!-- Thin lines: outer-fold and seed evaluations -->
    <g transform="translate(516.344756 370.753814) scale(0.09 -0.09)">
     <defs>
      <path id="DejaVuSans-4b" d="M 3513 2113
L 3513 0
L 2938 0
L 2938 2094
Q 2938 2591 2744 2837
Q 2550 3084 2163 3084
Q 1697 3084 1428 2787
Q 1159 2491 1159 1978
L 1159 0
L 581 0
L 581 4863
L 1159 4863
L 1159 2956
Q 1366 3272 1645 3428
Q 1925 3584 2291 3584
Q 2894 3584 3203 3211
Q 3513 2838 3513 2113
z
" transform="scale(0.015625)"/>
      <path id="DejaVuSans-1d" d="M 750 794
L 1409 794
L 1409 0
L 750 0
L 750 794
z
M 750 3309
L 1409 3309
L 1409 2516
L 750 2516
L 750 3309
z
" transform="scale(0.015625)"/>
      <path id="DejaVuSans-10" d="M 313 2009
L 1997 2009
L 1997 1497
L 313 1497
L 313 2009
z
" transform="scale(0.015625)"/>
      <path id="DejaVuSans-59" d="M 191 3500
L 800 3500
L 1894 563
L 2988 3500
L 3597 3500
L 2284 0
L 1503 0
L 191 3500
z
" transform="scale(0.015625)"/>
     </defs>
     <use xlink:href="#DejaVuSans-37"/>
     <use xlink:href="#DejaVuSans-4b" transform="translate(61.078125 0)"/>
     <use xlink:href="#DejaVuSans-4c" transform="translate(124.453125 0)"/>
     <use xlink:href="#DejaVuSans-51" transform="translate(152.234375 0)"/>
     <use xlink:href="#DejaVuSans-3" transform="translate(215.609375 0)"/>
     <use xlink:href="#DejaVuSans-4f" transform="translate(247.390625 0)"/>
     <use xlink:href="#DejaVuSans-4c" transform="translate(275.171875 0)"/>
     <use xlink:href="#DejaVuSans-51" transform="translate(302.953125 0)"/>
     <use xlink:href="#DejaVuSans-48" transform="translate(366.328125 0)"/>
     <use xlink:href="#DejaVuSans-56" transform="translate(427.859375 0)"/>
     <use xlink:href="#DejaVuSans-1d" transform="translate(479.953125 0)"/>
     <use xlink:href="#DejaVuSans-3" transform="translate(513.640625 0)"/>
     <use xlink:href="#DejaVuSans-52" transform="translate(545.421875 0)"/>
     <use xlink:href="#DejaVuSans-58" transform="translate(606.609375 0)"/>
     <use xlink:href="#DejaVuSans-57" transform="translate(669.984375 0)"/>
     <use xlink:href="#DejaVuSans-48" transform="translate(709.1875 0)"/>
     <use xlink:href="#DejaVuSans-55" transform="translate(770.71875 0)"/>
     <use xlink:href="#DejaVuSans-10" transform="translate(805.4375 0)"/>
     <use xlink:href="#DejaVuSans-49" transform="translate(841.515625 0)"/>
     <use xlink:href="#DejaVuSans-52" transform="translate(876.71875 0)"/>
     <use xlink:href="#DejaVuSans-4f" transform="translate(937.90625 0)"/>
     <use xlink:href="#DejaVuSans-47" transform="translate(965.6875 0)"/>
     <use xlink:href="#DejaVuSans-3" transform="translate(1029.171875 0)"/>
     <use xlink:href="#DejaVuSans-44" transform="translate(1060.953125 0)"/>
     <use xlink:href="#DejaVuSans-51" transform="translate(1122.234375 0)"/>
     <use xlink:href="#DejaVuSans-47" transform="translate(1185.609375 0)"/>
     <use xlink:href="#DejaVuSans-3" transform="translate(1249.09375 0)"/>
     <use xlink:href="#DejaVuSans-56" transform="translate(1280.875 0)"/>
     <use xlink:href="#DejaVuSans-48" transform="translate(1332.96875 0)"/>
     <use xlink:href="#DejaVuSans-48" transform="translate(1394.5 0)"/>
     <use xlink:href="#DejaVuSans-47" transform="translate(1456.03125 0)"/>
     <use xlink:href="#DejaVuSans-3" transform="translate(1519.515625 0)"/>
     <use xlink:href="#DejaVuSans-48" transform="translate(1551.296875 0)"/>
     <use xlink:href="#DejaVuSans-59" transform="translate(1612.828125 0)"/>
     <use xlink:href="#DejaVuSans-44" transform="translate(1672.015625 0)"/>
     <use xlink:href="#DejaVuSans-4f" transform="translate(1733.296875 0)"/>
     <use xlink:href="#DejaVuSans-58" transform="translate(1761.078125 0)"/>
     <use xlink:href="#DejaVuSans-44" transform="translate(1824.453125 0)"/>
     <use xlink:href="#DejaVuSans-57" transform="translate(1885.734375 0)"/>
     <use xlink:href="#DejaVuSans-4c" transform="translate(1924.9375 0)"/>
     <use xlink:href="#DejaVuSans-52" transform="translate(1952.71875 0)"/>
     <use xlink:href="#DejaVuSans-51" transform="translate(2013.90625 0)"/>
     <use xlink:href="#DejaVuSans-56" transform="translate(2077.28125 0)"/>
    </g>
    <!-- Thick lines: means, not confidence intervals -->
    <g transform="translate(509.781787 381.556274) scale(0.09 -0.09)">
     <defs>
      <path id="DejaVuSans-4e" d="M 581 4863
L 1159 4863
L 1159 1991
L 2875 3500
L 3609 3500
L 1753 1863
L 3688 0
L 2938 0
L 1159 1709
L 1159 0
L 581 0
L 581 4863
z
" transform="scale(0.015625)"/>
      <path id="DejaVuSans-f" d="M 750 794
L 1409 794
L 1409 256
L 897 -744
L 494 -744
L 750 256
L 750 794
z
" transform="scale(0.015625)"/>
      <path id="DejaVuSans-13af" d="M 3431 3500
L 3431 0
L 2853 0
L 2853 3053
L 1275 3053
L 1275 0
L 697 0
L 697 3053
L 147 3053
L 147 3500
L 697 3500
L 697 3744
Q 697 4316 967 4589
Q 1238 4863 1797 4863
L 2375 4863
L 2375 4384
L 1825 4384
Q 1516 4384 1395 4259
Q 1275 4134 1275 3809
L 1275 3500
L 3431 3500
z
M 2853 4856
L 3431 4856
L 3431 4128
L 2853 4128
L 2853 4856
z
" transform="scale(0.015625)"/>
     </defs>
     <use xlink:href="#DejaVuSans-37"/>
     <use xlink:href="#DejaVuSans-4b" transform="translate(61.078125 0)"/>
     <use xlink:href="#DejaVuSans-4c" transform="translate(124.453125 0)"/>
     <use xlink:href="#DejaVuSans-46" transform="translate(152.234375 0)"/>
     <use xlink:href="#DejaVuSans-4e" transform="translate(207.21875 0)"/>
     <use xlink:href="#DejaVuSans-3" transform="translate(265.125 0)"/>
     <use xlink:href="#DejaVuSans-4f" transform="translate(296.90625 0)"/>
     <use xlink:href="#DejaVuSans-4c" transform="translate(324.6875 0)"/>
     <use xlink:href="#DejaVuSans-51" transform="translate(352.46875 0)"/>
     <use xlink:href="#DejaVuSans-48" transform="translate(415.84375 0)"/>
     <use xlink:href="#DejaVuSans-56" transform="translate(477.375 0)"/>
     <use xlink:href="#DejaVuSans-1d" transform="translate(529.46875 0)"/>
     <use xlink:href="#DejaVuSans-3" transform="translate(563.15625 0)"/>
     <use xlink:href="#DejaVuSans-50" transform="translate(594.9375 0)"/>
     <use xlink:href="#DejaVuSans-48" transform="translate(692.34375 0)"/>
     <use xlink:href="#DejaVuSans-44" transform="translate(753.875 0)"/>
     <use xlink:href="#DejaVuSans-51" transform="translate(815.15625 0)"/>
     <use xlink:href="#DejaVuSans-56" transform="translate(878.53125 0)"/>
     <use xlink:href="#DejaVuSans-f" transform="translate(930.625 0)"/>
     <use xlink:href="#DejaVuSans-3" transform="translate(962.40625 0)"/>
     <use xlink:href="#DejaVuSans-51" transform="translate(994.1875 0)"/>
     <use xlink:href="#DejaVuSans-52" transform="translate(1057.5625 0)"/>
     <use xlink:href="#DejaVuSans-57" transform="translate(1118.75 0)"/>
     <use xlink:href="#DejaVuSans-3" transform="translate(1157.953125 0)"/>
     <use xlink:href="#DejaVuSans-46" transform="translate(1189.734375 0)"/>
     <use xlink:href="#DejaVuSans-52" transform="translate(1244.71875 0)"/>
     <use xlink:href="#DejaVuSans-51" transform="translate(1305.90625 0)"/>
     <use xlink:href="#DejaVuSans-13af" transform="translate(1369.28125 0)"/>
     <use xlink:href="#DejaVuSans-47" transform="translate(1432.265625 0)"/>
     <use xlink:href="#DejaVuSans-48" transform="translate(1495.75 0)"/>
     <use xlink:href="#DejaVuSans-51" transform="translate(1557.28125 0)"/>
     <use xlink:href="#DejaVuSans-46" transform="translate(1620.65625 0)"/>
     <use xlink:href="#DejaVuSans-48" transform="translate(1675.640625 0)"/>
     <use xlink:href="#DejaVuSans-3" transform="translate(1737.171875 0)"/>
     <use xlink:href="#DejaVuSans-4c" transform="translate(1768.953125 0)"/>
     <use xlink:href="#DejaVuSans-51" transform="translate(1796.734375 0)"/>
     <use xlink:href="#DejaVuSans-57" transform="translate(1860.109375 0)"/>
     <use xlink:href="#DejaVuSans-48" transform="translate(1899.3125 0)"/>
     <use xlink:href="#DejaVuSans-55" transform="translate(1960.84375 0)"/>
     <use xlink:href="#DejaVuSans-59" transform="translate(2001.953125 0)"/>
     <use xlink:href="#DejaVuSans-44" transform="translate(2061.140625 0)"/>
     <use xlink:href="#DejaVuSans-4f" transform="translate(2122.421875 0)"/>
     <use xlink:href="#DejaVuSans-56" transform="translate(2150.203125 0)"/>
    </g>
   </g>
   <g id="text_18">
    <!-- Training-data-size learning curves · Fixed recipes -->
    <g transform="translate(232.567924 18.379238) scale(0.13 -0.13)">
     <defs>
      <path id="DejaVuSans-5d" d="M 353 3500
L 3084 3500
L 3084 2975
L 922 459
L 3084 459
L 3084 0
L 275 0
L 275 525
L 2438 3041
L 353 3041
L 353 3500
z
" transform="scale(0.015625)"/>
      <path id="DejaVuSans-79" d="M 684 2619
L 1344 2619
L 1344 1825
L 684 1825
L 684 2619
z
" transform="scale(0.015625)"/>
      <path id="DejaVuSans-29" d="M 628 4666
L 3309 4666
L 3309 4134
L 1259 4134
L 1259 2759
L 3109 2759
L 3109 2228
L 1259 2228
L 1259 0
L 628 0
L 628 4666
z
" transform="scale(0.015625)"/>
      <path id="DejaVuSans-5b" d="M 3513 3500
L 2247 1797
L 3578 0
L 2900 0
L 1881 1375
L 863 0
L 184 0
L 1544 1831
L 300 3500
L 978 3500
L 1906 2253
L 2834 3500
L 3513 3500
z
" transform="scale(0.015625)"/>
     </defs>
     <use xlink:href="#DejaVuSans-37"/>
     <use xlink:href="#DejaVuSans-55" transform="translate(46.375 0)"/>
     <use xlink:href="#DejaVuSans-44" transform="translate(87.484375 0)"/>
     <use xlink:href="#DejaVuSans-4c" transform="translate(148.765625 0)"/>
     <use xlink:href="#DejaVuSans-51" transform="translate(176.546875 0)"/>
     <use xlink:href="#DejaVuSans-4c" transform="translate(239.921875 0)"/>
     <use xlink:href="#DejaVuSans-51" transform="translate(267.703125 0)"/>
     <use xlink:href="#DejaVuSans-4a" transform="translate(331.078125 0)"/>
     <use xlink:href="#DejaVuSans-10" transform="translate(394.5625 0)"/>
     <use xlink:href="#DejaVuSans-47" transform="translate(430.640625 0)"/>
     <use xlink:href="#DejaVuSans-44" transform="translate(494.125 0)"/>
     <use xlink:href="#DejaVuSans-57" transform="translate(555.40625 0)"/>
     <use xlink:href="#DejaVuSans-44" transform="translate(594.609375 0)"/>
     <use xlink:href="#DejaVuSans-10" transform="translate(655.890625 0)"/>
     <use xlink:href="#DejaVuSans-56" transform="translate(691.96875 0)"/>
     <use xlink:href="#DejaVuSans-4c" transform="translate(744.0625 0)"/>
     <use xlink:href="#DejaVuSans-5d" transform="translate(771.84375 0)"/>
     <use xlink:href="#DejaVuSans-48" transform="translate(824.328125 0)"/>
     <use xlink:href="#DejaVuSans-3" transform="translate(885.859375 0)"/>
     <use xlink:href="#DejaVuSans-4f" transform="translate(917.640625 0)"/>
     <use xlink:href="#DejaVuSans-48" transform="translate(945.421875 0)"/>
     <use xlink:href="#DejaVuSans-44" transform="translate(1006.953125 0)"/>
     <use xlink:href="#DejaVuSans-55" transform="translate(1068.234375 0)"/>
     <use xlink:href="#DejaVuSans-51" transform="translate(1107.59375 0)"/>
     <use xlink:href="#DejaVuSans-4c" transform="translate(1170.96875 0)"/>
     <use xlink:href="#DejaVuSans-51" transform="translate(1198.75 0)"/>
     <use xlink:href="#DejaVuSans-4a" transform="translate(1262.125 0)"/>
     <use xlink:href="#DejaVuSans-3" transform="translate(1325.609375 0)"/>
     <use xlink:href="#DejaVuSans-46" transform="translate(1357.390625 0)"/>
     <use xlink:href="#DejaVuSans-58" transform="translate(1412.375 0)"/>
     <use xlink:href="#DejaVuSans-55" transform="translate(1475.75 0)"/>
     <use xlink:href="#DejaVuSans-59" transform="translate(1516.859375 0)"/>
     <use xlink:href="#DejaVuSans-48" transform="translate(1576.046875 0)"/>
     <use xlink:href="#DejaVuSans-56" transform="translate(1637.578125 0)"/>
     <use xlink:href="#DejaVuSans-3" transform="translate(1689.671875 0)"/>
     <use xlink:href="#DejaVuSans-79" transform="translate(1721.453125 0)"/>
     <use xlink:href="#DejaVuSans-3" transform="translate(1753.234375 0)"/>
     <use xlink:href="#DejaVuSans-29" transform="translate(1785.015625 0)"/>
     <use xlink:href="#DejaVuSans-4c" transform="translate(1835.25 0)"/>
     <use xlink:href="#DejaVuSans-5b" transform="translate(1863.03125 0)"/>
     <use xlink:href="#DejaVuSans-48" transform="translate(1919.140625 0)"/>
     <use xlink:href="#DejaVuSans-47" transform="translate(1980.671875 0)"/>
     <use xlink:href="#DejaVuSans-3" transform="translate(2044.15625 0)"/>
     <use xlink:href="#DejaVuSans-55" transform="translate(2075.9375 0)"/>
     <use xlink:href="#DejaVuSans-48" transform="translate(2114.84375 0)"/>
     <use xlink:href="#DejaVuSans-46" transform="translate(2176.375 0)"/>
     <use xlink:href="#DejaVuSans-4c" transform="translate(2231.359375 0)"/>
     <use xlink:href="#DejaVuSans-53" transform="translate(2259.140625 0)"/>
     <use xlink:href="#DejaVuSans-48" transform="translate(2322.625 0)"/>
     <use xlink:href="#DejaVuSans-56" transform="translate(2384.15625 0)"/>
    </g>
    <!-- Repeated held-out evaluation across 66 participants -->
    <g transform="translate(220.450502 33.982793) scale(0.13 -0.13)">
     <defs>
      <path id="DejaVuSans-35" d="M 2841 2188
Q 3044 2119 3236 1894
Q 3428 1669 3622 1275
L 4263 0
L 3584 0
L 2988 1197
Q 2756 1666 2539 1819
Q 2322 1972 1947 1972
L 1259 1972
L 1259 0
L 628 0
L 628 4666
L 2053 4666
Q 2853 4666 3247 4331
Q 3641 3997 3641 3322
Q 3641 2881 3436 2590
Q 3231 2300 2841 2188
z
M 1259 4147
L 1259 2491
L 2053 2491
Q 2509 2491 2742 2702
Q 2975 2913 2975 3322
Q 2975 3731 2742 3939
Q 2509 4147 2053 4147
L 1259 4147
z
" transform="scale(0.015625)"/>
     </defs>
     <use xlink:href="#DejaVuSans-35"/>
     <use xlink:href="#DejaVuSans-48" transform="translate(65 0)"/>
     <use xlink:href="#DejaVuSans-53" transform="translate(126.53125 0)"/>
     <use xlink:href="#DejaVuSans-48" transform="translate(190.015625 0)"/>
     <use xlink:href="#DejaVuSans-44" transform="translate(251.546875 0)"/>
     <use xlink:href="#DejaVuSans-57" transform="translate(312.828125 0)"/>
     <use xlink:href="#DejaVuSans-48" transform="translate(352.03125 0)"/>
     <use xlink:href="#DejaVuSans-47" transform="translate(413.5625 0)"/>
     <use xlink:href="#DejaVuSans-3" transform="translate(477.046875 0)"/>
     <use xlink:href="#DejaVuSans-4b" transform="translate(508.828125 0)"/>
     <use xlink:href="#DejaVuSans-48" transform="translate(572.203125 0)"/>
     <use xlink:href="#DejaVuSans-4f" transform="translate(633.734375 0)"/>
     <use xlink:href="#DejaVuSans-47" transform="translate(661.515625 0)"/>
     <use xlink:href="#DejaVuSans-10" transform="translate(725 0)"/>
     <use xlink:href="#DejaVuSans-52" transform="translate(762.9375 0)"/>
     <use xlink:href="#DejaVuSans-58" transform="translate(824.125 0)"/>
     <use xlink:href="#DejaVuSans-57" transform="translate(887.5 0)"/>
     <use xlink:href="#DejaVuSans-3" transform="translate(926.703125 0)"/>
     <use xlink:href="#DejaVuSans-48" transform="translate(958.484375 0)"/>
     <use xlink:href="#DejaVuSans-59" transform="translate(1020.015625 0)"/>
     <use xlink:href="#DejaVuSans-44" transform="translate(1079.203125 0)"/>
     <use xlink:href="#DejaVuSans-4f" transform="translate(1140.484375 0)"/>
     <use xlink:href="#DejaVuSans-58" transform="translate(1168.265625 0)"/>
     <use xlink:href="#DejaVuSans-44" transform="translate(1231.640625 0)"/>
     <use xlink:href="#DejaVuSans-57" transform="translate(1292.921875 0)"/>
     <use xlink:href="#DejaVuSans-4c" transform="translate(1332.125 0)"/>
     <use xlink:href="#DejaVuSans-52" transform="translate(1359.90625 0)"/>
     <use xlink:href="#DejaVuSans-51" transform="translate(1421.09375 0)"/>
     <use xlink:href="#DejaVuSans-3" transform="translate(1484.46875 0)"/>
     <use xlink:href="#DejaVuSans-44" transform="translate(1516.25 0)"/>
     <use xlink:href="#DejaVuSans-46" transform="translate(1577.53125 0)"/>
     <use xlink:href="#DejaVuSans-55" transform="translate(1632.515625 0)"/>
     <use xlink:href="#DejaVuSans-52" transform="translate(1671.421875 0)"/>
     <use xlink:href="#DejaVuSans-56" transform="translate(1732.609375 0)"/>
     <use xlink:href="#DejaVuSans-56" transform="translate(1784.703125 0)"/>
     <use xlink:href="#DejaVuSans-3" transform="translate(1836.796875 0)"/>
     <use xlink:href="#DejaVuSans-19" transform="translate(1868.578125 0)"/>
     <use xlink:href="#DejaVuSans-19" transform="translate(1932.203125 0)"/>
     <use xlink:href="#DejaVuSans-3" transform="translate(1995.828125 0)"/>
     <use xlink:href="#DejaVuSans-53" transform="translate(2027.609375 0)"/>
     <use xlink:href="#DejaVuSans-44" transform="translate(2091.09375 0)"/>
     <use xlink:href="#DejaVuSans-55" transform="translate(2152.375 0)"/>
     <use xlink:href="#DejaVuSans-57" transform="translate(2193.484375 0)"/>
     <use xlink:href="#DejaVuSans-4c" transform="translate(2232.6875 0)"/>
     <use xlink:href="#DejaVuSans-46" transform="translate(2260.46875 0)"/>
     <use xlink:href="#DejaVuSans-4c" transform="translate(2315.453125 0)"/>
     <use xlink:href="#DejaVuSans-53" transform="translate(2343.234375 0)"/>
     <use xlink:href="#DejaVuSans-44" transform="translate(2406.71875 0)"/>
     <use xlink:href="#DejaVuSans-51" transform="translate(2468 0)"/>
     <use xlink:href="#DejaVuSans-57" transform="translate(2531.375 0)"/>
     <use xlink:href="#DejaVuSans-56" transform="translate(2570.578125 0)"/>
    </g>
   </g>
  </g>
  <g id="legend_1">
   <g id="line2d_63">
    <path d="M 188.208276 449.965893
L 197.208276 449.965893
L 206.208276 449.965893
" style="fill: none; stroke: #0072b2; stroke-width: 2.2; stroke-linecap: square"/>
    <g>
     <use xlink:href="#m1ea37959df" x="197.208276" y="449.965893" style="fill: #0072b2; stroke: #0072b2"/>
    </g>
   </g>
   <g id="text_19">
    <!-- Support vector machine with -->
    <g transform="translate(213.408276 446.633608) scale(0.09 -0.09)">
     <defs>
      <path id="DejaVuSans-36" d="M 3425 4513
L 3425 3897
Q 3066 4069 2747 4153
Q 2428 4238 2131 4238
Q 1616 4238 1336 4038
Q 1056 3838 1056 3469
Q 1056 3159 1242 3001
Q 1428 2844 1947 2747
L 2328 2669
Q 3034 2534 3370 2195
Q 3706 1856 3706 1288
Q 3706 609 3251 259
Q 2797 -91 1919 -91
Q 1588 -91 1214 -16
Q 841 59 441 206
L 441 856
Q 825 641 1194 531
Q 1563 422 1919 422
Q 2459 422 2753 634
Q 3047 847 3047 1241
Q 3047 1584 2836 1778
Q 2625 1972 2144 2069
L 1759 2144
Q 1053 2284 737 2584
Q 422 2884 422 3419
Q 422 4038 858 4394
Q 1294 4750 2059 4750
Q 2388 4750 2728 4690
Q 3069 4631 3425 4513
z
" transform="scale(0.015625)"/>
      <path id="DejaVuSans-5a" d="M 269 3500
L 844 3500
L 1563 769
L 2278 3500
L 2956 3500
L 3675 769
L 4391 3500
L 4966 3500
L 4050 0
L 3372 0
L 2619 2869
L 1863 0
L 1184 0
L 269 3500
z
" transform="scale(0.015625)"/>
     </defs>
     <use xlink:href="#DejaVuSans-36"/>
     <use xlink:href="#DejaVuSans-58" transform="translate(63.484375 0)"/>
     <use xlink:href="#DejaVuSans-53" transform="translate(126.859375 0)"/>
     <use xlink:href="#DejaVuSans-53" transform="translate(190.34375 0)"/>
     <use xlink:href="#DejaVuSans-52" transform="translate(253.828125 0)"/>
     <use xlink:href="#DejaVuSans-55" transform="translate(315.015625 0)"/>
     <use xlink:href="#DejaVuSans-57" transform="translate(356.125 0)"/>
     <use xlink:href="#DejaVuSans-3" transform="translate(395.328125 0)"/>
     <use xlink:href="#DejaVuSans-59" transform="translate(427.109375 0)"/>
     <use xlink:href="#DejaVuSans-48" transform="translate(486.296875 0)"/>
     <use xlink:href="#DejaVuSans-46" transform="translate(547.828125 0)"/>
     <use xlink:href="#DejaVuSans-57" transform="translate(602.8125 0)"/>
     <use xlink:href="#DejaVuSans-52" transform="translate(642.015625 0)"/>
     <use xlink:href="#DejaVuSans-55" transform="translate(703.203125 0)"/>
     <use xlink:href="#DejaVuSans-3" transform="translate(744.3125 0)"/>
     <use xlink:href="#DejaVuSans-50" transform="translate(776.09375 0)"/>
     <use xlink:href="#DejaVuSans-44" transform="translate(873.5 0)"/>
     <use xlink:href="#DejaVuSans-46" transform="translate(934.78125 0)"/>
     <use xlink:href="#DejaVuSans-4b" transform="translate(989.765625 0)"/>
     <use xlink:href="#DejaVuSans-4c" transform="translate(1053.140625 0)"/>
     <use xlink:href="#DejaVuSans-51" transform="translate(1080.921875 0)"/>
     <use xlink:href="#DejaVuSans-48" transform="translate(1144.296875 0)"/>
     <use xlink:href="#DejaVuSans-3" transform="translate(1205.828125 0)"/>
     <use xlink:href="#DejaVuSans-5a" transform="translate(1237.609375 0)"/>
     <use xlink:href="#DejaVuSans-4c" transform="translate(1319.390625 0)"/>
     <use xlink:href="#DejaVuSans-57" transform="translate(1347.171875 0)"/>
     <use xlink:href="#DejaVuSans-4b" transform="translate(1386.375 0)"/>
    </g>
    <!-- histogram of oriented gradients -->
    <g transform="translate(213.408276 457.436069) scale(0.09 -0.09)">
     <use xlink:href="#DejaVuSans-4b"/>
     <use xlink:href="#DejaVuSans-4c" transform="translate(63.375 0)"/>
     <use xlink:href="#DejaVuSans-56" transform="translate(91.15625 0)"/>
     <use xlink:href="#DejaVuSans-57" transform="translate(143.25 0)"/>
     <use xlink:href="#DejaVuSans-52" transform="translate(182.453125 0)"/>
     <use xlink:href="#DejaVuSans-4a" transform="translate(243.640625 0)"/>
     <use xlink:href="#DejaVuSans-55" transform="translate(307.125 0)"/>
     <use xlink:href="#DejaVuSans-44" transform="translate(348.234375 0)"/>
     <use xlink:href="#DejaVuSans-50" transform="translate(409.515625 0)"/>
     <use xlink:href="#DejaVuSans-3" transform="translate(506.921875 0)"/>
     <use xlink:href="#DejaVuSans-52" transform="translate(538.703125 0)"/>
     <use xlink:href="#DejaVuSans-49" transform="translate(599.890625 0)"/>
     <use xlink:href="#DejaVuSans-3" transform="translate(635.09375 0)"/>
     <use xlink:href="#DejaVuSans-52" transform="translate(666.875 0)"/>
     <use xlink:href="#DejaVuSans-55" transform="translate(728.0625 0)"/>
     <use xlink:href="#DejaVuSans-4c" transform="translate(769.171875 0)"/>
     <use xlink:href="#DejaVuSans-48" transform="translate(796.953125 0)"/>
     <use xlink:href="#DejaVuSans-51" transform="translate(858.484375 0)"/>
     <use xlink:href="#DejaVuSans-57" transform="translate(921.859375 0)"/>
     <use xlink:href="#DejaVuSans-48" transform="translate(961.0625 0)"/>
     <use xlink:href="#DejaVuSans-47" transform="translate(1022.59375 0)"/>
     <use xlink:href="#DejaVuSans-3" transform="translate(1086.078125 0)"/>
     <use xlink:href="#DejaVuSans-4a" transform="translate(1117.859375 0)"/>
     <use xlink:href="#DejaVuSans-55" transform="translate(1181.34375 0)"/>
     <use xlink:href="#DejaVuSans-44" transform="translate(1222.453125 0)"/>
     <use xlink:href="#DejaVuSans-47" transform="translate(1283.734375 0)"/>
     <use xlink:href="#DejaVuSans-4c" transform="translate(1347.21875 0)"/>
     <use xlink:href="#DejaVuSans-48" transform="translate(1375 0)"/>
     <use xlink:href="#DejaVuSans-51" transform="translate(1436.53125 0)"/>
     <use xlink:href="#DejaVuSans-57" transform="translate(1499.90625 0)"/>
     <use xlink:href="#DejaVuSans-56" transform="translate(1539.109375 0)"/>
    </g>
   </g>
   <g id="line2d_64">
    <path d="M 188.208276 468.687651
L 197.208276 468.687651
L 206.208276 468.687651
" style="fill: none; stroke-dasharray: 8.14,3.52; stroke-dashoffset: 0; stroke: #d55e00; stroke-width: 2.2"/>
    <g>
     <use xlink:href="#m417e9de683" x="197.208276" y="468.687651" style="fill: #d55e00; stroke: #d55e00; stroke-linejoin: miter"/>
    </g>
   </g>
   <g id="text_20">
    <!-- ResNet18 trained from scratch -->
    <g transform="translate(213.408276 471.837651) scale(0.09 -0.09)">
     <defs>
      <path id="DejaVuSans-31" d="M 628 4666
L 1478 4666
L 3547 763
L 3547 4666
L 4159 4666
L 4159 0
L 3309 0
L 1241 3903
L 1241 0
L 628 0
L 628 4666
z
" transform="scale(0.015625)"/>
     </defs>
     <use xlink:href="#DejaVuSans-35"/>
     <use xlink:href="#DejaVuSans-48" transform="translate(65 0)"/>
     <use xlink:href="#DejaVuSans-56" transform="translate(126.53125 0)"/>
     <use xlink:href="#DejaVuSans-31" transform="translate(178.625 0)"/>
     <use xlink:href="#DejaVuSans-48" transform="translate(253.4375 0)"/>
     <use xlink:href="#DejaVuSans-57" transform="translate(314.96875 0)"/>
     <use xlink:href="#DejaVuSans-14" transform="translate(354.171875 0)"/>
     <use xlink:href="#DejaVuSans-1b" transform="translate(417.796875 0)"/>
     <use xlink:href="#DejaVuSans-3" transform="translate(481.421875 0)"/>
     <use xlink:href="#DejaVuSans-57" transform="translate(513.203125 0)"/>
     <use xlink:href="#DejaVuSans-55" transform="translate(552.40625 0)"/>
     <use xlink:href="#DejaVuSans-44" transform="translate(593.515625 0)"/>
     <use xlink:href="#DejaVuSans-4c" transform="translate(654.796875 0)"/>
     <use xlink:href="#DejaVuSans-51" transform="translate(682.578125 0)"/>
     <use xlink:href="#DejaVuSans-48" transform="translate(745.953125 0)"/>
     <use xlink:href="#DejaVuSans-47" transform="translate(807.484375 0)"/>
     <use xlink:href="#DejaVuSans-3" transform="translate(870.96875 0)"/>
     <use xlink:href="#DejaVuSans-49" transform="translate(902.75 0)"/>
     <use xlink:href="#DejaVuSans-55" transform="translate(937.953125 0)"/>
     <use xlink:href="#DejaVuSans-52" transform="translate(976.859375 0)"/>
     <use xlink:href="#DejaVuSans-50" transform="translate(1038.046875 0)"/>
     <use xlink:href="#DejaVuSans-3" transform="translate(1135.453125 0)"/>
     <use xlink:href="#DejaVuSans-56" transform="translate(1167.234375 0)"/>
     <use xlink:href="#DejaVuSans-46" transform="translate(1219.328125 0)"/>
     <use xlink:href="#DejaVuSans-55" transform="translate(1274.3125 0)"/>
     <use xlink:href="#DejaVuSans-44" transform="translate(1315.421875 0)"/>
     <use xlink:href="#DejaVuSans-57" transform="translate(1376.703125 0)"/>
     <use xlink:href="#DejaVuSans-46" transform="translate(1415.90625 0)"/>
     <use xlink:href="#DejaVuSans-4b" transform="translate(1470.890625 0)"/>
    </g>
   </g>
   <g id="line2d_65">
    <path d="M 374.616557 449.965893
L 383.616557 449.965893
L 392.616557 449.965893
" style="fill: none; stroke-dasharray: 2.2,3.63; stroke-dashoffset: 0; stroke: #009e73; stroke-width: 2.2"/>
    <g>
     <use xlink:href="#mf50a8f55ab" x="383.616557" y="449.965893" style="fill: #009e73; stroke: #009e73; stroke-linejoin: miter"/>
    </g>
   </g>
   <g id="text_21">
    <!-- ImageNet-pretrained ResNet18 -->
    <g transform="translate(399.816557 453.115893) scale(0.09 -0.09)">
     <defs>
      <path id="DejaVuSans-2c" d="M 628 4666
L 1259 4666
L 1259 0
L 628 0
L 628 4666
z
" transform="scale(0.015625)"/>
     </defs>
     <use xlink:href="#DejaVuSans-2c"/>
     <use xlink:href="#DejaVuSans-50" transform="translate(29.5 0)"/>
     <use xlink:href="#DejaVuSans-44" transform="translate(126.90625 0)"/>
     <use xlink:href="#DejaVuSans-4a" transform="translate(188.1875 0)"/>
     <use xlink:href="#DejaVuSans-48" transform="translate(251.671875 0)"/>
     <use xlink:href="#DejaVuSans-31" transform="translate(313.203125 0)"/>
     <use xlink:href="#DejaVuSans-48" transform="translate(388.015625 0)"/>
     <use xlink:href="#DejaVuSans-57" transform="translate(449.546875 0)"/>
     <use xlink:href="#DejaVuSans-10" transform="translate(488.75 0)"/>
     <use xlink:href="#DejaVuSans-53" transform="translate(524.828125 0)"/>
     <use xlink:href="#DejaVuSans-55" transform="translate(588.3125 0)"/>
     <use xlink:href="#DejaVuSans-48" transform="translate(627.21875 0)"/>
     <use xlink:href="#DejaVuSans-57" transform="translate(688.75 0)"/>
     <use xlink:href="#DejaVuSans-55" transform="translate(727.953125 0)"/>
     <use xlink:href="#DejaVuSans-44" transform="translate(769.0625 0)"/>
     <use xlink:href="#DejaVuSans-4c" transform="translate(830.34375 0)"/>
     <use xlink:href="#DejaVuSans-51" transform="translate(858.125 0)"/>
     <use xlink:href="#DejaVuSans-48" transform="translate(921.5 0)"/>
     <use xlink:href="#DejaVuSans-47" transform="translate(983.03125 0)"/>
     <use xlink:href="#DejaVuSans-3" transform="translate(1046.515625 0)"/>
     <use xlink:href="#DejaVuSans-35" transform="translate(1078.296875 0)"/>
     <use xlink:href="#DejaVuSans-48" transform="translate(1143.296875 0)"/>
     <use xlink:href="#DejaVuSans-56" transform="translate(1204.828125 0)"/>
     <use xlink:href="#DejaVuSans-31" transform="translate(1256.921875 0)"/>
     <use xlink:href="#DejaVuSans-48" transform="translate(1331.734375 0)"/>
     <use xlink:href="#DejaVuSans-57" transform="translate(1393.265625 0)"/>
     <use xlink:href="#DejaVuSans-14" transform="translate(1432.46875 0)"/>
     <use xlink:href="#DejaVuSans-1b" transform="translate(1496.09375 0)"/>
    </g>
   </g>
   <g id="line2d_66">
    <path d="M 374.616557 463.466596
L 383.616557 463.466596
L 392.616557 463.466596
" style="fill: none; stroke-dasharray: 1,1.65; stroke-dashoffset: 0; stroke: #666666"/>
   </g>
   <g id="text_22">
    <!-- Constant-class reference: 50% -->
    <g transform="translate(399.816557 466.616596) scale(0.09 -0.09)">
     <defs>
      <path id="DejaVuSans-26" d="M 4122 4306
L 4122 3641
Q 3803 3938 3442 4084
Q 3081 4231 2675 4231
Q 1875 4231 1450 3742
Q 1025 3253 1025 2328
Q 1025 1406 1450 917
Q 1875 428 2675 428
Q 3081 428 3442 575
Q 3803 722 4122 1019
L 4122 359
Q 3791 134 3420 21
Q 3050 -91 2638 -91
Q 1578 -91 968 557
Q 359 1206 359 2328
Q 359 3453 968 4101
Q 1578 4750 2638 4750
Q 3056 4750 3426 4639
Q 3797 4528 4122 4306
z
" transform="scale(0.015625)"/>
     </defs>
     <use xlink:href="#DejaVuSans-26"/>
     <use xlink:href="#DejaVuSans-52" transform="translate(69.828125 0)"/>
     <use xlink:href="#DejaVuSans-51" transform="translate(131.015625 0)"/>
     <use xlink:href="#DejaVuSans-56" transform="translate(194.390625 0)"/>
     <use xlink:href="#DejaVuSans-57" transform="translate(246.484375 0)"/>
     <use xlink:href="#DejaVuSans-44" transform="translate(285.6875 0)"/>
     <use xlink:href="#DejaVuSans-51" transform="translate(346.96875 0)"/>
     <use xlink:href="#DejaVuSans-57" transform="translate(410.34375 0)"/>
     <use xlink:href="#DejaVuSans-10" transform="translate(449.546875 0)"/>
     <use xlink:href="#DejaVuSans-46" transform="translate(485.625 0)"/>
     <use xlink:href="#DejaVuSans-4f" transform="translate(540.609375 0)"/>
     <use xlink:href="#DejaVuSans-44" transform="translate(568.390625 0)"/>
     <use xlink:href="#DejaVuSans-56" transform="translate(629.671875 0)"/>
     <use xlink:href="#DejaVuSans-56" transform="translate(681.765625 0)"/>
     <use xlink:href="#DejaVuSans-3" transform="translate(733.859375 0)"/>
     <use xlink:href="#DejaVuSans-55" transform="translate(765.640625 0)"/>
     <use xlink:href="#DejaVuSans-48" transform="translate(804.546875 0)"/>
     <use xlink:href="#DejaVuSans-49" transform="translate(866.078125 0)"/>
     <use xlink:href="#DejaVuSans-48" transform="translate(901.28125 0)"/>
     <use xlink:href="#DejaVuSans-55" transform="translate(962.8125 0)"/>
     <use xlink:href="#DejaVuSans-48" transform="translate(1001.71875 0)"/>
     <use xlink:href="#DejaVuSans-51" transform="translate(1063.25 0)"/>
     <use xlink:href="#DejaVuSans-46" transform="translate(1126.625 0)"/>
     <use xlink:href="#DejaVuSans-48" transform="translate(1181.609375 0)"/>
     <use xlink:href="#DejaVuSans-1d" transform="translate(1243.140625 0)"/>
     <use xlink:href="#DejaVuSans-3" transform="translate(1276.828125 0)"/>
     <use xlink:href="#DejaVuSans-18" transform="translate(1308.609375 0)"/>
     <use xlink:href="#DejaVuSans-13" transform="translate(1372.234375 0)"/>
     <use xlink:href="#DejaVuSans-8" transform="translate(1435.859375 0)"/>
    </g>
   </g>
  </g>
 </g>
 <defs>
  <clipPath id="pf129adb751">
   <rect x="60.648828" y="45.982793" width="660.550692" height="349.109763"/>
  </clipPath>
 </defs>
</svg>
